<?xml version="1.0" encoding="UTF-8" standalone="no"?>
<!-- Generator: Adobe Illustrator 18.1.1, SVG Export Plug-In . SVG Version: 6.00 Build 0)  -->

<svg
   xmlns:dc="http://purl.org/dc/elements/1.1/"
   xmlns:cc="http://creativecommons.org/ns#"
   xmlns:rdf="http://www.w3.org/1999/02/22-rdf-syntax-ns#"
   xmlns:svg="http://www.w3.org/2000/svg"
   xmlns="http://www.w3.org/2000/svg"
   xmlns:sodipodi="http://sodipodi.sourceforge.net/DTD/sodipodi-0.dtd"
   xmlns:inkscape="http://www.inkscape.org/namespaces/inkscape"
   version="1.1"
   id="Capa_1"
   x="0px"
   y="0px"
   viewBox="0 0 358.502 358.502"
   style="enable-background:new 0 0 358.502 358.502;"
   xml:space="preserve"
   inkscape:version="0.91 r13725"
   sodipodi:docname="cool.svg"><metadata
     id="metadata47"><rdf:RDF><cc:Work
         rdf:about=""><dc:format>image/svg+xml</dc:format><dc:type
           rdf:resource="http://purl.org/dc/dcmitype/StillImage" /></cc:Work></rdf:RDF></metadata><defs
     id="defs45" /><sodipodi:namedview
     pagecolor="#ffffff"
     bordercolor="#666666"
     borderopacity="1"
     objecttolerance="10"
     gridtolerance="10"
     guidetolerance="10"
     inkscape:pageopacity="0"
     inkscape:pageshadow="2"
     inkscape:window-width="1280"
     inkscape:window-height="897"
     id="namedview43"
     showgrid="false"
     inkscape:zoom="1.8242575"
     inkscape:cx="179.25101"
     inkscape:cy="179.25101"
     inkscape:window-x="-4"
     inkscape:window-y="-4"
     inkscape:window-maximized="1"
     inkscape:current-layer="Capa_1"
     inkscape:snap-center="true" /><path
     inkscape:connector-curvature="0"
     id="path5"
     d="m 172.81705,290.13234 c -17.434,-4.396 -15.066,-19.398 -12.035,-28.08 61.247,-11.209 107.814,-64.968 107.814,-129.403 0,-72.538004 -59.015,-131.5530035 -131.554,-131.5530035 -72.539004,0 -131.5540035,59.0149995 -131.5540035,131.5540035 0,63.901 45.7989995,117.297 106.2940035,129.111 3.078,8.633 5.697,23.926 -11.933004,28.372 -25.003,6.305 -58.728,18.561 -58.728,49.66 0,26.407 190.423004,26.407 190.423004,0 0.001,-31.099 -33.724,-43.356 -58.727,-49.661 z M 22.490046,132.65034 c 0,-63.164004 51.388,-114.552004 114.552004,-114.552004 63.164,0 114.552,51.388 114.552,114.552004 0,63.164 -51.388,114.552 -114.552,114.552 -63.164004,0 -114.552004,-51.388 -114.552004,-114.552 z m 102.900004,199.617 c 0,2.954 -2.396,5.35 -5.349,5.35 -2.954,0 -5.35,-2.396 -5.35,-5.35 l 0,-7.791 c 0,-2.955 2.396,-5.35 5.35,-5.35 2.953,0 5.349,2.395 5.349,5.35 l 0,7.791 z m 17,0 c 0,2.954 -2.395,5.35 -5.349,5.35 -2.953,0 -5.349,-2.396 -5.349,-5.35 l 0,-7.791 c 0,-2.955 2.396,-5.35 5.349,-5.35 2.954,0 5.349,2.395 5.349,5.35 l 0,7.791 z m 17.002,0 c 0,2.954 -2.395,5.35 -5.349,5.35 -2.953,0 -5.349,-2.396 -5.349,-5.35 l 0,-7.791 c 0,-2.955 2.395,-5.35 5.349,-5.35 2.954,0 5.349,2.395 5.349,5.35 l 0,7.791 z" /><g
     id="g3379"
     inkscape:transform-center-x="-7.1550486"
     inkscape:transform-center-y="9.7126476"
     transform="matrix(0.38866826,0.92137777,-0.92137777,0.38866826,194.98397,-78.664784)"><path
       d="m 192.177,129.765 c 1.747,2.531 2.776,5.599 2.776,8.906 0,8.637 -6.971,15.637 -15.59,15.699 0.91,12.496 7.329,26.467 12.434,36.027 9.149,17.143 34.172,21.641 55.889,10.049 21.716,-11.593 31.904,-34.887 22.753,-52.028 -14.073,-26.362 -56.191,-29.532 -78.262,-18.653 z"
       id="path7"
       inkscape:connector-curvature="0" /><path
       d="m 166.384,129.691 c 2.84,-4.061 7.54,-6.72 12.867,-6.72 5.34,0 10.049,2.671 12.886,6.741 10.622,-4.803 20.876,-13.658 27.944,-20.489 13.97,-13.503 11.429,-38.8 -5.681,-56.499 -17.107,-17.701 -42.302,-21.103 -56.273,-7.6 -21.878,21.145 -12.663,63.663 4.444,81.363 1.225,1.267 2.5,2.32 3.813,3.204 z"
       id="path9"
       inkscape:connector-curvature="0" /><path
       d="m 163.549,138.671 c 0,-3.307 1.029,-6.373 2.776,-8.905 -22.071,-10.88 -64.188,-7.71 -78.262,18.652 -9.15,17.142 1.037,40.436 22.753,52.028 21.717,11.592 46.739,7.094 55.889,-10.049 5.105,-9.562 11.516,-23.531 12.424,-36.028 -8.614,-0.065 -15.58,-7.065 -15.58,-15.698 z"
       id="path11"
       inkscape:connector-curvature="0" /></g><g
     id="g4164"
     transform="translate(-3.8562317,0)"><rect
       y="236.6434"
       x="282.85352"
       height="37.823608"
       width="66.328354"
       id="rect3345"
       style="fill:#00ff00;fill-rule:evenodd;stroke:#000000;stroke-width:3;stroke-linecap:butt;stroke-linejoin:miter;stroke-miterlimit:4;stroke-dasharray:none;stroke-opacity:1" /><text
       transform="scale(0.70581317,1.4168055)"
       sodipodi:linespacing="125%"
       id="text4147"
       y="189.19621"
       x="408.07883"
       style="font-style:normal;font-variant:normal;font-weight:normal;font-stretch:normal;font-size:24.64858055px;line-height:125%;font-family:Arial;-inkscape-font-specification:Arial;text-align:start;letter-spacing:0px;word-spacing:0px;writing-mode:lr-tb;text-anchor:start;fill:#000000;fill-opacity:1;stroke:none;stroke-width:1px;stroke-linecap:butt;stroke-linejoin:miter;stroke-opacity:1"
       xml:space="preserve"><tspan
         y="189.19621"
         x="408.07883"
         id="tspan4149"
         sodipodi:role="line">START</tspan></text>
</g><g
     id="g4159"><rect
       style="fill:#00ff00;fill-rule:evenodd;stroke:#000000;stroke-width:3;stroke-linecap:butt;stroke-linejoin:miter;stroke-miterlimit:4;stroke-dasharray:none;stroke-opacity:1"
       id="rect4151"
       width="66.328354"
       height="37.823608"
       x="278.99728"
       y="295.83698" /><text
       xml:space="preserve"
       style="font-style:normal;font-variant:normal;font-weight:normal;font-stretch:normal;font-size:24.64874989px;line-height:125%;font-family:Arial;-inkscape-font-specification:'Arial, Normal';text-align:start;letter-spacing:0px;word-spacing:0px;writing-mode:lr;text-anchor:start;fill:#000000;fill-opacity:1;stroke:none;stroke-width:1px;stroke-linecap:butt;stroke-linejoin:miter;stroke-opacity:1;"
       x="408.85547"
       y="230.98189"
       id="text4153"
       sodipodi:linespacing="125%"
       transform="scale(0.70581318,1.4168055)"><tspan
         id="tspan4157"
         sodipodi:role="line">STOP</tspan></text>
</g></svg>