<?xml version="1.0" encoding="iso-8859-1"?>
<!-- Generator: Adobe Illustrator 18.0.0, SVG Export Plug-In . SVG Version: 6.00 Build 0)  -->
<!DOCTYPE svg PUBLIC "-//W3C//DTD SVG 1.1//EN" "http://www.w3.org/Graphics/SVG/1.1/DTD/svg11.dtd">
<svg version="1.1" id="Capa_1" xmlns="http://www.w3.org/2000/svg" xmlns:xlink="http://www.w3.org/1999/xlink" x="0px" y="0px"
	 viewBox="0 0 270 270" style="enable-background:new 0 0 270 270;" xml:space="preserve">
<g>
	<path d="M194.895,66.888c-4.117-3.181-9.989-2.674-13.499,1.17l-34.718,38.023c-3.61-1.463-7.55-2.276-11.679-2.276
		c-5.791,0-11.214,1.592-15.866,4.352L88.85,80.506c5.101-5.085,12.168-10.906,18.431-12.337c5.384-1.231,8.75-6.594,7.52-11.978
		c-1.23-5.383-6.589-8.745-11.977-7.521c-18.311,4.186-34.187,24.17-35.937,26.435c-3.182,4.119-2.673,9.989,1.17,13.499
		l38.024,34.718c-1.463,3.609-2.276,7.549-2.276,11.678c0,5.791,1.591,11.215,4.352,15.866l-27.65,30.284
		c-5.086-5.101-10.906-12.168-12.338-18.431c-1.23-5.384-6.587-8.751-11.977-7.521c-5.384,1.23-8.751,6.593-7.52,11.977
		c4.184,18.311,24.169,34.188,26.434,35.938c1.814,1.401,3.967,2.087,6.11,2.087c2.722,0,5.425-1.106,7.389-3.257l34.717-38.023
		c3.609,1.463,7.549,2.276,11.677,2.276c5.79,0,11.214-1.592,15.867-4.352l30.283,27.65c-5.101,5.085-12.168,10.906-18.431,12.337
		c-5.384,1.231-8.751,6.594-7.52,11.977c1.059,4.634,5.179,7.773,9.74,7.773c0.738,0,1.487-0.082,2.237-0.253
		c18.311-4.186,34.186-24.17,35.936-26.435c3.182-4.119,2.673-9.989-1.17-13.499l-38.023-34.717c1.463-3.61,2.277-7.55,2.277-11.679
		c0-5.791-1.591-11.214-4.352-15.866l27.639-30.271c5.095,5.12,10.928,12.201,12.349,18.418c1.23,5.384,6.593,8.748,11.977,7.521
		c5.384-1.232,8.751-6.594,7.52-11.978C217.143,84.514,197.16,68.638,194.895,66.888z M135,147.5c-6.903,0-12.5-5.597-12.5-12.5
		s5.597-12.5,12.5-12.5c6.903,0,12.5,5.597,12.5,12.5S141.903,147.5,135,147.5z"/>
	<path d="M265,0H5C2.239,0,0,2.238,0,5v260c0,2.762,2.239,5,5,5h260c2.761,0,5-2.238,5-5V5C270,2.238,267.761,0,265,0z
		 M241.546,20.078c4.687,0,8.5,3.813,8.5,8.5s-3.813,8.5-8.5,8.5c-4.687,0-8.5-3.813-8.5-8.5S236.859,20.078,241.546,20.078z
		 M28.455,20.078c4.687,0,8.5,3.813,8.5,8.5s-3.813,8.5-8.5,8.5s-8.5-3.813-8.5-8.5S23.768,20.078,28.455,20.078z M28.455,249.922
		c-4.687,0-8.5-3.814-8.5-8.5c0-4.687,3.813-8.5,8.5-8.5s8.5,3.813,8.5,8.5C36.955,246.108,33.142,249.922,28.455,249.922z
		 M241.546,249.922c-4.687,0-8.5-3.814-8.5-8.5c0-4.687,3.813-8.5,8.5-8.5c4.687,0,8.5,3.813,8.5,8.5
		C250.046,246.108,246.233,249.922,241.546,249.922z M135,251.093c-64.012,0-116.09-52.079-116.09-116.093S70.988,18.907,135,18.907
		c64.013,0,116.092,52.079,116.092,116.093S199.013,251.093,135,251.093z"/>
</g>
<g>
</g>
<g>
</g>
<g>
</g>
<g>
</g>
<g>
</g>
<g>
</g>
<g>
</g>
<g>
</g>
<g>
</g>
<g>
</g>
<g>
</g>
<g>
</g>
<g>
</g>
<g>
</g>
<g>
</g>
</svg>
