<svg xmlns="http://www.w3.org/2000/svg" xmlns:xlink="http://www.w3.org/1999/xlink" viewBox="0 0 128 128"><defs><style>.cls-1{fill:url(#Silver_04);}.cls-2{fill:#221f20;}.cls-3{fill:url(#linear-gradient);}.cls-4{fill:#00913a;}.cls-5{opacity:0.5;fill:url(#linear-gradient-2);}.cls-6{opacity:0.25;isolation:isolate;fill:url(#linear-gradient-3);}</style><linearGradient id="Silver_04" x1="-36.04" y1="64" x2="150.81" y2="64" gradientUnits="userSpaceOnUse"><stop offset="0" stop-color="#cbd0d5"/><stop offset="0.09" stop-color="#c7cdd1"/><stop offset="0.17" stop-color="#bcc2c6"/><stop offset="0.25" stop-color="#aab0b4"/><stop offset="0.25" stop-color="#aab0b4"/><stop offset="0.29" stop-color="#cad0d4"/><stop offset="0.33" stop-color="#e1e7eb"/><stop offset="0.37" stop-color="#eff5f8"/><stop offset="0.4" stop-color="#f4fafd"/><stop offset="0.63" stop-color="#f4fafd"/><stop offset="0.75" stop-color="#969ca0"/><stop offset="0.83" stop-color="#afb6bb"/><stop offset="0.85" stop-color="#949a9e"/><stop offset="0.87" stop-color="#7c8286"/><stop offset="0.89" stop-color="#6e7377"/><stop offset="0.91" stop-color="#696e72"/><stop offset="0.93" stop-color="#707579"/><stop offset="0.95" stop-color="#83888d"/><stop offset="0.97" stop-color="#a3a8ad"/><stop offset="1" stop-color="#cbd0d5"/></linearGradient><linearGradient id="linear-gradient" x1="63.91" y1="-3605.85" x2="63.91" y2="-3709.94" gradientTransform="translate(0 3721.89)" gradientUnits="userSpaceOnUse"><stop offset="0" stop-color="#fff"/><stop offset="1" stop-color="#dacfd8"/></linearGradient><linearGradient id="linear-gradient-2" x1="63.92" y1="-513.11" x2="63.92" y2="-535.27" gradientTransform="matrix(1, 0, 0, -1, 0, -487.72)" gradientUnits="userSpaceOnUse"><stop offset="0" stop-color="#fff"/><stop offset="1" stop-color="#fff" stop-opacity="0"/></linearGradient><linearGradient id="linear-gradient-3" x1="48.34" y1="-599.33" x2="115.78" y2="-529.49" gradientTransform="matrix(1, 0, 0, -1, 0, -487.72)" gradientUnits="userSpaceOnUse"><stop offset="0" stop-color="#040000"/><stop offset="1" stop-color="#040000" stop-opacity="0.2"/></linearGradient></defs><title>button_1</title><g id="Layer_2" data-name="Layer 2"><g id="Layer_1-2" data-name="Layer 1"><ellipse class="cls-1" cx="63.91" cy="64" rx="63.91" ry="64"/><ellipse class="cls-2" cx="63.91" cy="64" rx="54.92" ry="55"/><path class="cls-3" d="M115.88,64a52,52,0,1,1-52-52h0A52,52,0,0,1,115.88,64Z"/><path class="cls-4" d="M112.39,64a48.48,48.48,0,1,1-48.5-48.53h0A48.53,48.53,0,0,1,112.39,64Z"/><path class="cls-5" d="M91.71,43.85c0,9-12.45.95-27.8.95s-27.78,8-27.78-.95S48.56,27.48,63.91,27.48,91.71,34.82,91.71,43.85Z"/><path class="cls-6" d="M125.53,46.43c-8.81,32.39-40.68,56.39-78.64,56.39A86.32,86.32,0,0,1,7.31,93.34,63.9,63.9,0,0,0,126.21,49C126,48.14,125.78,47.29,125.53,46.43Z"/></g></g></svg>