<?xml version="1.0" encoding="UTF-8"?><svg id="_레이어_2" xmlns="http://www.w3.org/2000/svg" viewBox="0 0 75.937 37.314"><defs><style>.cls-1{fill:#544618;}.cls-2{fill:#a0842b;}.cls-3{fill:#d5dce0;}</style></defs><g id="_레이어_1-2"><rect class="cls-2" width="75.937" height="37.314" rx="3.109" ry="3.109"/><path class="cls-3" d="M4.521,4.05h66.895c.26,0,.471.211.471.471v28.272c0,.26-.211.471-.471.471H4.521c-.26,0-.471-.211-.471-.471V4.521c0-.26.211-.47.47-.47Z"/><path class="cls-1" d="M71.416,4.419c.056,0,.102.046.102.102v28.272c0,.056-.046.102-.102.102H4.521c-.056,0-.102-.046-.102-.102V4.521c0-.056.046-.102.102-.102h66.895M71.416,3.682H4.521c-.463,0-.839.375-.839.839v28.272c0,.463.376.839.839.839h66.895c.463,0,.839-.376.839-.839V4.521c0-.463-.376-.839-.839-.839h0Z"/></g></svg>