<?xml version="1.0" encoding="UTF-8"?><svg id="_레이어_2" xmlns="http://www.w3.org/2000/svg" xmlns:xlink="http://www.w3.org/1999/xlink" viewBox="0 0 76.137 34.977"><defs><style>.cls-1{fill:url(#linear-gradient-2);}.cls-2{fill:url(#linear-gradient-3);opacity:.37;}.cls-3{fill:#fff;stroke:#383838;stroke-miterlimit:10;stroke-width:.12px;}.cls-4{fill:url(#linear-gradient);}</style><linearGradient id="linear-gradient" x1="38.161" y1="31.579" x2="38.161" y2="3.398" gradientUnits="userSpaceOnUse"><stop offset=".087" stop-color="#fff"/><stop offset="1" stop-color="#d9d9d9"/></linearGradient><linearGradient id="linear-gradient-2" x1="38.068" y1="30.281" x2="38.068" y2="4.695" gradientUnits="userSpaceOnUse"><stop offset="0" stop-color="#4d4d4d"/><stop offset=".44" stop-color="#1a1a1a"/></linearGradient><linearGradient id="linear-gradient-3" x1="38.068" y1="18.601" x2="38.068" y2="4.695" gradientUnits="userSpaceOnUse"><stop offset="0" stop-color="#f2f2f2"/><stop offset=".146" stop-color="#eee"/><stop offset=".284" stop-color="#e2e2e2"/><stop offset=".419" stop-color="#cfcfcf"/><stop offset=".551" stop-color="#b5b5b5"/><stop offset=".681" stop-color="#929292"/><stop offset=".811" stop-color="#686868"/><stop offset=".937" stop-color="#373737"/><stop offset="1" stop-color="#1c1c1c"/></linearGradient></defs><g id="_레이어_1-2"><rect class="cls-3" x=".06" y=".06" width="76.016" height="34.856" rx="1.483" ry="1.483"/><rect class="cls-4" x="4.139" y="3.398" width="68.044" height="28.182" rx="1.483" ry="1.483"/><path class="cls-1" d="M70.514,28.848c0,.836-.858,1.433-1.73,1.433H7.306c-.872,0-1.684-.597-1.684-1.433V6.128c0-.836.812-1.432,1.684-1.432h61.478c.872,0,1.73.596,1.73,1.432v22.72Z"/><path class="cls-2" d="M70.514,17.701c0,.448-.858.9-1.73.9H7.306c-.872,0-1.684-.452-1.684-.9V5.87c0-.448.812-1.174,1.684-1.174h61.478c.872,0,1.607.664,1.607,1.113l.124,11.893Z"/></g></svg>