<svg xmlns="http://www.w3.org/2000/svg" xmlns:xlink="http://www.w3.org/1999/xlink" viewBox="0 0 31.45 31.46"><defs><style>.cls-1,.cls-50{fill:none;}.cls-2{isolation:isolate;}.cls-3{clip-path:url(#clip-path);}.cls-4{fill:#f37456;}.cls-5{fill:#f36f51;}.cls-6{fill:#f26a4c;}.cls-7{fill:#f26347;}.cls-8{fill:#f15c41;}.cls-9{fill:#f0533a;}.cls-10{fill:#ef4632;}.cls-11{fill:#ed1b23;}.cls-12{fill:#e71a22;}.cls-13{fill:#e31a22;}.cls-14{fill:#df1921;}.cls-15{fill:#db1920;}.cls-16{fill:#d71820;}.cls-17{fill:#d3171f;}.cls-18{fill:#d0171e;}.cls-19{fill:#cc161d;}.cls-20{fill:#c8151c;}.cls-21{fill:#c4141b;}.cls-22{fill:#c0131a;}.cls-23{fill:#bc1219;}.cls-24{fill:#b81218;}.cls-25{fill:#b51016;}.cls-26{fill:#b10f15;}.cls-27{fill:#ad0e13;}.cls-28{fill:#a90c12;}.cls-29{fill:#a50b10;}.cls-30{fill:#a10a0f;}.cls-31{fill:#9d080d;}.cls-32{fill:#9a060b;}.cls-33{fill:#960509;}.cls-34{fill:#920307;}.cls-35{fill:#8f0205;}.cls-36{fill:#f4785a;}.cls-37{fill:#f47c5e;}.cls-38{fill:#f48061;}.cls-39{fill:#f58365;}.cls-40{fill:#f58768;}.cls-41{fill:#f58a6c;}.cls-42{fill:#f68d6f;}.cls-43{fill:#f69072;}.cls-44{fill:#f69375;}.cls-45{fill:#f69578;}.cls-46{fill:#f7987b;}.cls-47{fill:#f79b7e;}.cls-48{fill:#f79d81;}.cls-49{fill:#d1171e;}.cls-50{stroke:#fff;stroke-miterlimit:10;stroke-width:2px;}.cls-51{fill:#fff;}</style><clipPath id="clip-path"><path class="cls-1" d="M15.72,1V0A15.73,15.73,0,1,1,0,15.72,15.72,15.72,0,0,1,15.72,0V1A14.73,14.73,0,1,0,30.45,15.72,14.72,14.72,0,0,0,15.72,1Z"/></clipPath></defs><title>xisom_smf_button7</title><g id="Layer_2" data-name="Layer 2"><g id="Layer_1-2" data-name="Layer 1"><g class="cls-2"><g class="cls-2"><g class="cls-3"><g class="cls-2"><path class="cls-4" d="M15.72,1V0A15.73,15.73,0,1,1,0,15.72,15.72,15.72,0,0,1,15.72,0V1A14.73,14.73,0,1,0,30.45,15.72,14.72,14.72,0,0,0,15.72,1"/><path class="cls-4" d="M15.72.85l-.19,0h.19A14.9,14.9,0,0,0,1,15.72,14.73,14.73,0,1,0,15.72,1L16.9.94c8.65.91,14.46,8.2,13.53,17A14.51,14.51,0,0,0,15.72.85V0A15.73,15.73,0,1,1,0,15.72,15.72,15.72,0,0,1,15.72,0V.85"/><path class="cls-5" d="M15.72.82,15,.88l.77,0a14.77,14.77,0,1,1,0,.09l1.2,0c7.53.75,14.77,7.21,13.38,17.71A14.57,14.57,0,0,0,15.72.82V0A15.73,15.73,0,1,1,0,15.72,15.72,15.72,0,0,1,15.72,0V.82"/><path class="cls-6" d="M15.72.79c-.46,0-1.33.13-1.34.13l1.34,0a14.75,14.75,0,1,1,0,.06h1.21c7.93.73,15.23,8,13.21,18.34A14.49,14.49,0,0,0,15.72.79V0A15.73,15.73,0,1,1,0,15.72,15.72,15.72,0,0,1,15.72,0V.79"/><path class="cls-7" d="M15.72.78A13.27,13.27,0,0,0,13.61,1L15.72,1a14.75,14.75,0,1,1,0,.05h1.21c6.43.59,15.63,6.3,13,19.12A14.52,14.52,0,0,0,15.72.78V0A15.73,15.73,0,1,1,0,15.72,15.72,15.72,0,0,1,15.72,0V.78"/><path class="cls-8" d="M15.72.76a13.22,13.22,0,0,0-2.9.39c1,.07,1.93-.19,2.9-.19A14.75,14.75,0,1,0,30.45,15.72,14.78,14.78,0,0,0,15.72,1h1.21A14.9,14.9,0,0,1,28.34,8.07c2.75,4.35,2.25,7.23,1.27,13C33.32,12,27.64.82,15.72.76V0A15.73,15.73,0,1,1,0,15.72,15.72,15.72,0,0,1,15.72,0V.76"/><path class="cls-9" d="M15.72.74a12.8,12.8,0,0,0-4.15.78A16.09,16.09,0,0,1,15.72,1,14.75,14.75,0,1,0,30.45,15.72,14.76,14.76,0,0,0,15.72,1l1.21,0A14.87,14.87,0,0,1,29.05,22.16C33.89,14.59,28.53.57,15.72.74V0A15.73,15.73,0,1,1,0,15.72,15.72,15.72,0,0,1,15.72,0V.74"/><path class="cls-10" d="M15.72.72a13.52,13.52,0,0,0-5.66,1.33A15.86,15.86,0,0,1,15.72,1,14.74,14.74,0,1,0,30.45,15.72,14.73,14.73,0,0,0,15.72,1l1.21,0C27,2,34.35,12.74,28.26,23.58A14.64,14.64,0,0,0,15.72.72V0A15.73,15.73,0,1,1,0,15.72,15.72,15.72,0,0,1,15.72,0V.72"/><path class="cls-11" d="M15.72.7c-14.15.88-20,17.42-9.32,26.43,10,8.47,25.5.1,24.34-13.18A14.76,14.76,0,0,0,15.72.7V0A15.73,15.73,0,1,1,0,15.72,15.72,15.72,0,0,1,15.72,0V.7"/><path class="cls-12" d="M15.72.69C1.06,1.57-3.42,18.07,5.55,26.39,16,36.1,31.3,27.15,30.83,15A14.6,14.6,0,0,0,15.72.69V0A15.73,15.73,0,1,1,0,15.72,15.72,15.72,0,0,1,15.72,0V.69"/><path class="cls-13" d="M15.72.67C2.35,1.08-4.12,17.43,5.54,26.39A15,15,0,0,0,30.85,15,14.66,14.66,0,0,0,15.72.67V0A15.73,15.73,0,1,1,0,15.72,15.72,15.72,0,0,1,15.72,0V.67"/><path class="cls-14" d="M15.72.64c-14.17.88-20,17.48-9.34,26.51,9.28,7.84,25.69,1,24.42-13.4C30.35,8.54,26,.74,15.72.64V0A15.73,15.73,0,1,1,0,15.72,15.72,15.72,0,0,1,15.72,0V.64"/><path class="cls-15" d="M15.72.61h0C1.51,1.48-4.34,18.1,6.38,27.16c9.89,8.36,25.46.06,24.49-13.06A14.72,14.72,0,0,0,15.72.61V0A15.73,15.73,0,1,1,0,15.72,15.72,15.72,0,0,1,15.72,0V.61"/><path class="cls-16" d="M15.72.58c-14.17.91-20,17.56-9.35,26.59A15.08,15.08,0,0,0,30.9,13.87,14.77,14.77,0,0,0,15.72.58V0A15.73,15.73,0,1,1,0,15.72,15.72,15.72,0,0,1,15.72,0V.58"/><path class="cls-17" d="M15.72.54h0A15,15,0,0,0,5.51,26.42C16,36.13,31.4,27.11,31,15A14.78,14.78,0,0,0,15.72.54V0A15.73,15.73,0,1,1,0,15.72,15.72,15.72,0,0,1,15.72,0V.54"/><path class="cls-18" d="M15.72.5c-14.16,1-20,17.67-9.36,26.69C15.63,35,32.16,28.26,31,13.88A14.73,14.73,0,0,0,15.72.5V0A15.73,15.73,0,1,1,0,15.72,15.72,15.72,0,0,1,15.72,0V.5"/><path class="cls-19" d="M15.72.45c-14.17,1-20,17.72-9.37,26.75,9.48,8,26.06,1.11,24.65-13.59A14.93,14.93,0,0,0,15.72.45V0A15.73,15.73,0,1,1,0,15.72,15.72,15.72,0,0,1,15.72,0V.45"/><path class="cls-20" d="M15.72.41c-14.26.92-20.14,17.7-9.38,26.8,9.86,8.34,25.6.21,24.77-12.79A14.92,14.92,0,0,0,15.72.41V0A15.73,15.73,0,1,1,0,15.72,15.72,15.72,0,0,1,15.72,0V.41"/><path class="cls-21" d="M15.72.37h0C1.16,1.17-3.46,18.17,5.48,26.46A15.29,15.29,0,0,0,31.17,15,15,15,0,0,0,15.72.37V0A15.73,15.73,0,1,1,0,15.72,15.72,15.72,0,0,1,15.72,0V.37"/><path class="cls-22" d="M15.72.33h0A15.2,15.2,0,0,0,5.47,26.47c10.78,10,26.1,1,25.74-11.52A15.08,15.08,0,0,0,15.72.33V0A15.73,15.73,0,1,1,0,15.72,15.72,15.72,0,0,1,15.72,0V.33"/><path class="cls-23" d="M15.72.29C2.26.81-4.27,17.46,5.45,26.49c10.63,9.87,26.23.77,25.79-11.54A15.07,15.07,0,0,0,15.72.29V0A15.73,15.73,0,1,1,0,15.72,15.72,15.72,0,0,1,15.72,0V.29"/><path class="cls-24" d="M15.72.25c-14.35.93-20.25,17.85-9.43,27,9.44,8,26.17,1.19,24.91-13.4A15.15,15.15,0,0,0,15.72.25V0A15.73,15.73,0,1,1,0,15.72,15.72,15.72,0,0,1,15.72,0V.25"/><path class="cls-25" d="M15.72.21C1.28,1.09-4.63,18,6.28,27.28c9.49,8,26.26,1.24,25-13.42A15.33,15.33,0,0,0,15.72.21V0A15.73,15.73,0,1,1,0,15.72,15.72,15.72,0,0,1,15.72,0V.21"/><path class="cls-26" d="M15.72.17C1.09,1-3.57,18.2,5.41,26.54c10.82,10.05,26.48.9,25.93-11.6A15.29,15.29,0,0,0,15.72.17V0A15.73,15.73,0,1,1,0,15.72,15.72,15.72,0,0,1,15.72,0V.17"/><path class="cls-27" d="M15.72.14C1,1-3.63,18.17,5.39,26.55c10.83,10.07,26.53.9,26-11.61A15.31,15.31,0,0,0,15.72.14,15.52,15.52,0,0,1,31.45,15.72,15.73,15.73,0,1,1,15.72,0V.14"/><path class="cls-28" d="M15.72.11C1,.91-3.7,18.14,5.37,26.57c10.89,10.13,26.6.94,26-11.63A15.52,15.52,0,0,0,15.72.11,15.56,15.56,0,0,1,31.45,15.72,15.73,15.73,0,1,1,15.72,0V.11"/><path class="cls-29" d="M15.72.08C2.26.4-4.43,17.5,5.35,26.59,15.46,36,32,28.59,31.41,14.94A15.48,15.48,0,0,0,15.72.08a15.68,15.68,0,1,1,0-.08V.08"/><path class="cls-30" d="M15.72.05C2.11.45-4.49,17.34,5.33,26.62c10,9.47,26.61,2,26.09-11.68a15.46,15.46,0,0,0-1.15-5.2A15.73,15.73,0,1,1,15.72,0V.05"/><path class="cls-31" d="M15.72,0C1,.59-3.78,18.19,5.31,26.64c10.11,9.41,26.71,2,26.12-11.7a16.4,16.4,0,0,0-.24-2.11,16.1,16.1,0,0,1,.26,2.89A15.73,15.73,0,1,1,15.72,0V0"/><path class="cls-32" d="M15.72,0C.66.63-4,18,5.28,26.67,15.34,36,31.72,29,31.45,15.39v.33A15.73,15.73,0,1,1,15.72,0h0"/><path class="cls-33" d="M15.72,0h0C.82.43-4,18.11,5.25,26.7a15.44,15.44,0,0,0,26.07-8.9A15.73,15.73,0,1,1,15.72,0h0"/><path class="cls-34" d="M12.65.3C-.81,3.22-4.13,21.14,7.43,28.5a15.57,15.57,0,0,0,23.38-8.3A15.73,15.73,0,1,1,13.79.12h0c-.34.05-.8.11-1.14.18"/><path class="cls-35" d="M9.86,1.13C-2.85,6.48-2.81,24.77,9.93,29.91c6.28,2.53,15.17,1.41,19.81-7A15.73,15.73,0,1,1,11,.72h0c-.34.12-.8.27-1.14.41"/><path class="cls-36" d="M30.55,16.46A15.12,15.12,0,0,0,16.59.89,14.45,14.45,0,0,1,30.53,17.12c0-.2,0-.46,0-.66"/><path class="cls-37" d="M30.54,15A15.09,15.09,0,0,0,17.61,1c7.38.27,13.93,8,13,15.35,0-.41,0-.94,0-1.35"/><path class="cls-38" d="M30.56,15A15.13,15.13,0,0,0,18.38,1.1c6.4.3,13,8.12,12.21,14.43,0-.16,0-.38,0-.55"/><path class="cls-39" d="M30.41,13.53A15.13,15.13,0,0,0,19.17,1.27c.94,0,5.12,1.28,7.91,4.58a13.39,13.39,0,0,1,3.48,8.88c0-.36-.09-.84-.15-1.2"/><path class="cls-40" d="M30.42,13.53A15.19,15.19,0,0,0,20,1.47L20,1.42a13.9,13.9,0,0,1,7.08,4.44,13.63,13.63,0,0,1,3.46,8s0,0-.06.05,0-.27-.06-.38"/><path class="cls-41" d="M30.35,13.06c-.46-1.17-.63-2.44-1.17-3.59a16.6,16.6,0,0,0-2.11-3.28A15.48,15.48,0,0,0,21.34,2a3.27,3.27,0,0,1-.73-.35,14.34,14.34,0,0,1,9.83,11.56.94.94,0,0,1-.09-.12"/><path class="cls-42" d="M30.17,12.2A15.58,15.58,0,0,0,26.92,6,17.09,17.09,0,0,0,24,3.41c-.87-.63-1.9-1-2.8-1.57a14.25,14.25,0,0,1,9.11,10.74c0-.12-.11-.27-.15-.38"/><path class="cls-43" d="M29.9,11.25c-2-5.22-4.36-6.93-8-9.13a14.19,14.19,0,0,1,8.3,9.8l-.27-.67"/><path class="cls-44" d="M29.77,10.75c-1.86-4.36-3.83-6.16-7.28-8.34A14.21,14.21,0,0,1,30,11.22l-.2-.47"/><path class="cls-30" d="M23,1.79A15.35,15.35,0,0,0,15.72.05V0A15.64,15.64,0,0,1,24,2.36c-.3-.17-.7-.41-1-.57"/><path class="cls-45" d="M29.22,9.45a16.16,16.16,0,0,0-6-6.65,14.25,14.25,0,0,1,6.52,7.7c-.15-.32-.34-.74-.5-1.05"/><path class="cls-46" d="M29.26,9.44a16.71,16.71,0,0,0-5.33-6.19,14.28,14.28,0,0,1,5.46,6.44l-.13-.25"/><path class="cls-31" d="M20.26.67A15.15,15.15,0,0,0,15.72,0,15.19,15.19,0,0,1,21.13,1c-.26-.08-.6-.21-.87-.28"/><path class="cls-47" d="M28.6,8.2a16.72,16.72,0,0,0-3.8-4.32A14,14,0,0,1,28.9,8.7c-.09-.15-.2-.35-.3-.5"/><path class="cls-32" d="M17.28.08S16.48,0,15.72,0a15,15,0,0,1,2.94.26l-1-.16-.34,0"/><path class="cls-48" d="M27.85,7A17.79,17.79,0,0,0,26,4.88a13.66,13.66,0,0,1,2.08,2.45L27.85,7"/><path class="cls-33" d="M15.72,0h.56c-.16,0-.44.11-.56,0"/></g></g></g><path class="cls-49" d="M15.72,1A14.73,14.73,0,1,1,1,15.72,14.72,14.72,0,0,1,15.72,1Z"/></g><path class="cls-50" d="M20.75,5.07a11.75,11.75,0,0,1,6,14.85"/><polygon class="cls-51" points="20.63 7.53 17.59 4.09 22.09 3.18 20.63 7.53"/><path class="cls-50" d="M4,16.7c0-.32,0-.65,0-1A11.8,11.8,0,0,1,13.86,4.09"/><polygon class="cls-51" points="6.17 15.57 4.72 19.92 1.68 16.49 6.17 15.57"/><path class="cls-50" d="M22.45,25.4A11.78,11.78,0,0,1,6.58,23.16"/><polygon class="cls-51" points="20.38 24.08 24.87 23.16 23.42 27.51 20.38 24.08"/><circle class="cls-1" cx="15.72" cy="15.73" r="14.62"/></g></g></svg>